<svg xmlns="http://www.w3.org/2000/svg" width="32" height="32" viewBox="0 0 120 140">
  <!-- Shield outline -->
  <path d="M14 8 L106 8 Q112 8 112 14 L112 65 Q112 115 60 136 Q8 115 8 65 L8 14 Q8 8 14 8 Z"
    fill="#050505" stroke="#C9A84C" stroke-width="4"/>
  <!-- Inner border -->
  <path d="M22 16 L98 16 Q100 16 100 18 L100 62 Q100 106 60 124 Q20 106 20 62 L20 18 Q20 16 22 16 Z"
    fill="none" stroke="#C9A84C" stroke-width="1.5" opacity="0.25"/>
  <!-- Cinzel Decorative Bold "D" (outlined path, no font dependency) -->
  <path d="M47.40 42.74L47.40 42.74Q48.35 42.74 50.87 42.74Q53.39 42.74 60.22 42.80L60.22 42.80Q70.14 42.91 75.90 48.15Q81.67 53.38 81.67 62.43Q81.67 71.47 75.90 76.74Q70.14 82 60.22 82L60.22 82L39.90 82L39.90 81.44L40.62 81.44Q42.02 81.44 43.06 80.46Q44.10 79.48 44.21 78.08L44.21 78.08L44.21 45.32Q37.94 45.77 34.91 48.23L34.91 48.23Q33.40 49.41 32.53 50.64Q31.66 51.87 30.82 53.61L30.82 53.61L30.26 53.38Q31.61 47.78 35.89 45.29Q40.18 42.80 47.40 42.74ZM59.55 79.65L59.55 79.65Q65.54 79.65 69.04 75Q72.54 70.35 72.54 62.40Q72.54 54.45 69.04 49.86Q65.54 45.26 59.66 45.26L59.66 45.26Q59.61 45.26 59.55 45.26L59.55 45.26L52.61 45.26L52.61 79.65L59.55 79.65Q59.55 79.65 59.55 79.65Z"
    fill="#C9A84C" opacity="0.9"/>
</svg>
